# xmcd
#
# Track frame offsets:
#	150
#	13064
#	27212
#	43084
#	55842
#	68863
#	85485
#	100244
#	113873
#	128592
#
# Disc length: 1889 seconds
#
# Revision: 0
# Processed by: cddbd v1.5.2PL0 Copyright (c) Steve Scherf et al.
# Submitted via: EasyCDDAExtractor 4.5.0.2
#
DISCID=81075f0a
DTITLE=Con Hunley
DYEAR=2005
DGENRE=Country
TTITLE0=I've Been Waiting for You All of My Life
TTITLE1=Since I Fell for You
TTITLE2=You've Still Got a Place in My Heart
TTITLE3=Week-End Friend
TTITLE4=Livin' on the Funky Side
TTITLE5=That's All That Matters
TTITLE6=Let's Try Again
TTITLE7=Honky Tonk Heart
TTITLE8=I'll Be Blue
TTITLE9=Only the Strong Survive
EXTD=
EXTT0=
EXTT1=
EXTT2=
EXTT3=
EXTT4=
EXTT5=
EXTT6=
EXTT7=
EXTT8=
EXTT9=
PLAYORDER=
